<?xml version="1.0" encoding="UTF-8"?>
<svg width="902px" height="134px" viewBox="0 0 902 134" version="1.1" xmlns="http://www.w3.org/2000/svg" xmlns:xlink="http://www.w3.org/1999/xlink">
    <g stroke="none" stroke-width="1" fill="none" fill-rule="evenodd">
        <g transform="translate(-1.000000, 0.000000)" fill="#888888" fill-rule="nonzero">
            <path d="M119.9,80.9 C119.9,86 118.6,89.8 116,92.3 C113.2,95 109.5,96.4 105.7,96.2 L93.4,96.2 L93.4,37.6 L105.7,37.6 C115.1,37.6 119.9,42.6 119.9,52.7 L119.9,80.9 Z M367.2,2.3 C368.2,3.2 368.7,4.5 368.7,5.9 L368.7,34.6 C368.7,37.4 366.4,39.7 363.6,39.7 L309.5,39.7 L309.5,53.7 L359.8,53.7 C362.6,53.7 364.9,56 364.9,58.8 L364.9,87.4 C364.9,90.2 362.6,92.5 359.8,92.5 L309.5,92.5 L309.5,128 C309.5,130.8 307.2,133.1 304.4,133.1 L268.3,133.1 C265.5,133.1 263.2,130.8 263.2,128 L263.2,116.7 C263.2,115.3 262.1,114.2 260.7,114.2 L259,114.2 C254.3,114.3 250.2,110.9 249.4,106.2 C248.6,101 252.2,96.2 257.3,95.5 C257.8,95.4 258.2,95.4 258.7,95.4 L267.8,95.4 C268.2,95.4 268.6,95.4 269,95.3 C274.1,94.6 277.7,90.1 277.1,85 C276.5,80.1 272.3,76.5 267.4,76.6 L265.1,76.6 C264.4,76.6 263.1,76.6 263.1,76.6 C257.9,76.6 253.7,72.4 253.6,67.2 C253.6,62.7 256.7,58.9 261.1,57.9 C262.3,57.7 263.1,56.7 263.1,55.5 L263.1,5.9 C263.1,3.1 265.4,0.8 268.2,0.8 L363.5,0.8 C365,0.8 366.3,1.3 367.2,2.3 Z M490.3,87.4 C490.3,90.2 488,92.5 485.2,92.5 L434.9,92.5 L434.9,128 C434.9,130.8 432.6,133.1 429.8,133.1 L393.7,133.1 C390.9,133.1 388.6,130.8 388.6,128 L388.6,60.8 C388.8,59.1 387.6,57.6 385.9,57.4 C385.7,57.4 385.4,57.4 385.2,57.4 C380.4,57.5 376.3,54 375.5,49.3 C374.7,44.1 378.3,39.3 383.5,38.6 C384,38.5 384.4,38.5 384.9,38.5 L395.3,38.5 C400,38.6 404.1,35.2 404.9,30.5 C405.7,25.3 402.1,20.5 397,19.8 C396.5,19.7 396.1,19.7 395.6,19.7 L389.7,19.7 C384.3,19.7 380.8,13.9 381.5,8.9 C382.3,4.2 386.4,0.8 391.1,0.8 L489,0.8 C491.8,0.8 494.1,3.1 494.1,5.9 L494.1,34.6 C494.1,37.4 491.8,39.7 489,39.7 L434.9,39.7 L434.9,53.7 L485.2,53.7 C488,53.7 490.3,56 490.3,58.8 L490.3,87.4 Z M775.7,91 C775.7,103.5 769.8,113.6 758,121.5 C746.2,129.4 730.8,133.3 711.8,133.3 C692.8,133.3 677.8,129.4 667,121.7 C656.2,114 650.7,104.5 650.7,93.5 C650.7,92.3 651.2,91.1 652.2,90.4 C653,89.7 654,89.4 655,89.4 L690.8,89.4 C693.5,89.4 696.4,90.6 699.6,93 C702.8,95.4 707.2,96.6 712.9,96.6 C722.4,96.6 727.1,94.9 727.1,91.5 C727.1,89.3 725.4,87.6 722,86.5 C718.6,85.4 712.2,84.2 702.7,82.9 C697.5,82.3 692.3,81.3 687.2,79.9 C683.8,79 676.9,75.9 670.8,75.9 L666.3,75.9 C661.4,75.9 656.6,72.2 656.2,67.3 C655.7,61.9 659.3,57.6 663.5,57.1 C669.3,56.4 674.1,52 672.7,45.8 C671.6,41.5 667.7,38.5 663.2,38.6 L656,38.6 C655.4,38.6 654.7,38.5 654.1,38.4 C649.2,37.4 646,32.8 646.6,27.9 C647.3,23.2 651.4,19.7 656.2,19.7 L659.3,19.7 C660.9,19.7 662.5,19 663.6,17.8 C665.5,15.8 667.6,13.9 669.8,12.3 C680.5,4.5 694.5,0.6 711.8,0.6 C729.1,0.6 743.3,4.8 754.3,13.2 C765.4,21.6 770.9,30.4 770.9,39.5 C770.9,40.6 770.5,41.6 769.7,42.4 C769,43.2 768,43.6 767,43.6 L729.1,43.6 C726.2,43.6 723.4,42.5 721.2,40.6 C718.8,38.6 715.6,37.6 711.6,37.6 C705.5,37.6 702.5,39.3 702.5,42.7 C702.5,44.5 704,46.1 707,47.3 C710,48.5 715.5,49.6 723.5,50.6 C742.3,52.9 755.7,57.1 763.7,63.3 C771.7,69.5 775.7,78.6 775.7,91 Z M902.4,101.3 L902.4,128 C902.4,130.8 900.1,133.1 897.3,133.1 L798.8,133.1 C796,133.1 793.7,130.8 793.7,128 L793.7,59.9 C793.7,58.6 792.7,57.5 791.4,57.3 C787.2,56.8 783.9,53.5 783.2,49.4 C782.4,44.2 786,39.4 791.1,38.7 C791.6,38.6 792,38.6 792.5,38.6 L794.8,38.6 C799.5,38.7 803.6,35.3 804.4,30.6 C805.2,25.4 801.7,20.6 796.5,19.8 C796,19.7 795.5,19.7 795,19.7 L781.2,19.7 C776.5,19.8 772.4,16.4 771.6,11.7 C770.8,6.5 774.4,1.7 779.5,1 C780,0.9 780.4,0.9 780.9,0.9 L895.8,0.9 C898.6,0.9 900.9,3.2 900.9,6 L900.9,32.7 C900.9,35.5 898.6,37.8 895.8,37.8 L839,37.8 L839,49.7 L891.6,49.7 C893,49.7 894.3,50.2 895.2,51.2 C896.2,52.1 896.7,53.4 896.7,54.8 L896.7,79.4 C896.7,80.8 896.2,82.1 895.2,83 C894.3,84 893,84.5 891.6,84.5 L839,84.5 L839,96.4 L897.2,96.4 C898.6,96.4 899.9,96.9 900.8,97.9 C901.8,98.7 902.4,100 902.4,101.3 Z M250.7,125 C249.8,129.7 245.7,133.1 240.8,133.1 L195,133.1 C192.2,133.1 189.9,130.8 189.9,128 L189.9,58.8 C189.9,57.9 189.4,57.1 188.5,56.7 C184.9,55.3 182.5,51.8 182.5,47.9 C182.5,43.4 185.6,39.1 189.9,38.7 C190.5,38.6 191.7,38.6 192.2,38.6 C197,38.6 201.1,35.2 201.8,30.4 C202.6,25.2 199,20.4 193.9,19.7 C193.4,19.6 193,19.6 192.5,19.6 L178.8,19.6 C174.1,19.7 170,16.3 169.2,11.6 C168.4,6.4 172,1.6 177.1,0.9 C177.6,0.8 178,0.8 178.5,0.8 L233.5,0.8 C236.3,0.8 238.6,3.1 238.6,5.9 L238.6,74.6 C238.6,75.5 239.2,76.4 240.1,76.6 C245.2,77.8 248.3,82.9 247.1,87.9 C246.1,91.9 242.7,94.9 238.5,95.1 C238.5,95.1 238.1,95.1 237.9,95.1 L229.1,95.1 C224.4,95 220.3,98.4 219.5,103.1 C218.7,108.3 222.2,113.1 227.4,113.9 C227.9,114 228.4,114 228.8,114 L241.3,114 C246.5,114 250.7,118.2 250.7,123.5 C250.8,124 250.8,124.5 250.7,125 Z M645.2,43 C647.1,46 647.1,49.8 645.2,52.8 C643.5,55.6 640.5,57.3 637.2,57.3 C635.8,57.2 634.7,58.3 634.7,59.7 C634.7,59.8 634.7,59.9 634.7,60.1 L634.7,80.9 C634.7,98.3 629.2,111.4 618.2,120.2 C607.2,129 593.7,133 573.5,133 C570.3,133 564.1,132.9 564,132.9 L499.8,132.9 C495.1,133 491,129.6 490.2,124.9 C489.4,119.7 493,114.9 498.2,114.2 C498.7,114.1 499.1,114.1 499.6,114.1 L524.1,114.1 C528.8,114.2 532.9,110.8 533.7,106.1 C534.5,100.9 530.9,96.1 525.8,95.4 C525.3,95.3 524.9,95.3 524.4,95.3 L515.3,95.3 C514.8,95.3 514.3,95.4 513.8,95.4 C513.8,95.3 513.8,95.3 513.8,95.3 L513.5,95.3 C509.1,95.3 504.7,91.8 504,87.5 C503.1,82.6 506.3,77.8 511.2,76.7 C511.9,76.6 512.4,75.9 512.4,75.2 L512.4,5.9 C512.4,4.6 512.9,3.3 513.9,2.3 C514.8,1.3 516.1,0.8 517.5,0.8 L554.6,0.8 C556,0.8 557.3,1.3 558.2,2.3 C559.2,3.2 559.7,4.5 559.7,5.8 L559.7,81 C559.7,90.5 564.4,95.3 573.7,95.3 C583,95.3 587.7,90.5 587.7,81 L587.7,5.8 C587.7,4.5 588.2,3.2 589.2,2.3 C590.1,1.3 591.4,0.8 592.8,0.8 L633,0.8 C637.8,0.7 642,4.3 642.7,9 C643.3,14.2 639.9,19.6 633.8,19.6 L620.2,19.6 C615.5,19.5 611.4,22.9 610.6,27.6 C609.8,32.8 613.4,37.6 618.6,38.3 C619.1,38.4 619.5,38.4 620,38.4 L634.8,38.4 L635.1,38.4 L637.6,38.4 C640.5,38.5 643.5,40.2 645.2,43 Z M151.1,14.4 C139.2,5.3 124,0.7 105.6,0.7 L25.5,0.7 C20.4,0.6 16.2,4.5 15.8,9.5 C15.5,14.7 19.4,19.2 24.6,19.5 C24.8,19.5 25,19.5 25.2,19.5 L45.4,19.5 C50.5,19.4 54.7,23.3 55.1,28.3 C55.5,33.5 51.5,38 46.3,38.3 C46.1,38.3 45.9,38.3 45.7,38.3 L10.7,38.3 C5.6,38.2 1.4,42.1 1,47.1 C0.7,52.3 4.6,56.8 9.8,57.1 C10,57.1 10.2,57.1 10.4,57.1 L26.4,57.1 C31.5,57 35.7,60.9 36.2,65.9 C36.6,71.1 32.6,75.6 27.4,76 C27.2,76 27,76 26.8,76 L25.5,76 C20.4,75.9 16.2,79.8 15.8,84.8 C15.5,90 19.4,94.5 24.6,94.8 C24.8,94.8 25,94.8 25.2,94.8 L33.7,94.8 C35.1,94.8 36.2,95.9 36.2,97.3 L36.2,128 C36.2,130.8 38.5,133.1 41.3,133.1 L105.8,133.1 C124.7,133.1 140,128.7 151.6,119.9 C163.2,111.1 169,98.1 169,80.9 L169,52.8 C169,36.4 163,23.6 151.1,14.4 Z" id="Shape"></path>
        </g>
    </g>
</svg>
