<?xml version="1.0" encoding="UTF-8"?>
<svg width="70px" height="70px" viewBox="0 0 70 70" version="1.1" xmlns="http://www.w3.org/2000/svg" xmlns:xlink="http://www.w3.org/1999/xlink">
    <!-- Generator: Sketch 45.2 (43514) - http://www.bohemiancoding.com/sketch -->
    <title>OR</title>
    <desc>Created with Sketch.</desc>
    <defs>
        <circle id="path-1" cx="35" cy="35" r="35"></circle>
    </defs>
    <g id="Page-1" stroke="none" stroke-width="1" fill="none" fill-rule="evenodd">
        <g id="favicon" transform="translate(-5.000000, -5.000000)">
            <g id="OR" transform="translate(5.000000, 5.000000)">
                <mask id="mask-2" fill="white">
                    <use xlink:href="#path-1"></use>
                </mask>
                <use id="Mask" fill="#5F8993" xlink:href="#path-1"></use>
                <path d="M30.1640001,53.576 C22.6280001,53.576 19.7000001,46.808 19.7000001,40.04 C19.7000001,30.872 24.5480001,18.824 35.8760001,18.824 C43.5080001,18.824 46.1480001,25.208 46.1480001,32.12 C46.1480001,41.432 41.4920001,53.576 30.1640001,53.576 Z M30.4040001,51.848 C40.3880001,51.848 44.3240001,40.472 44.3240001,32.072 C44.3240001,26.024 42.0680001,20.552 35.6360001,20.552 C25.6520001,20.552 21.5720001,31.832 21.5720001,40.232 C21.5720001,46.424 23.8760001,51.848 30.4040001,51.848 Z M73.604,27.224 C73.604,33.032 69.092,36.584 63.14,37.112 L68.084,53 L66.164,53 L61.22,37.208 L52.964,37.208 L50.18,53 L48.404,53 L54.308,19.4 L65.108,19.4 C71.348,19.4 73.604,23.48 73.604,27.224 Z M61.268,35.624 C66.644,35.624 71.732,33.224 71.732,27.224 C71.732,24.392 70.292,20.984 65.108,20.984 L55.844,20.984 L53.252,35.624 L61.268,35.624 Z" fill="#FFFFFF" mask="url(#mask-2)"></path>
            </g>
        </g>
    </g>
</svg>