<?xml version="1.0" encoding="UTF-8"?>
<svg width="572px" height="572px" viewBox="0 0 572 572" version="1.1" xmlns="http://www.w3.org/2000/svg" xmlns:xlink="http://www.w3.org/1999/xlink">
    <!-- Generator: Sketch 49 (51002) - http://www.bohemiancoding.com/sketch -->
    <title>Icon</title>
    <desc>Created with Sketch.</desc>
    <defs></defs>
    <g id="Page-1" stroke="none" stroke-width="1" fill="none" fill-rule="evenodd">
        <g id="Icon" transform="translate(30.000000, 30.000000)">
            <rect id="Rectangle" fill="#FFFFFF" x="0" y="0" width="512" height="512" rx="28"></rect>
            <circle id="Oval" fill="#FFFFFF" cx="259" cy="256" r="256"></circle>
            <path d="M323,282.694102 C323,292.34493 320.557906,299.633979 315.673716,304.561249 C310.473831,309.630693 303.439502,312.310798 296.225076,311.971252 L273,311.971252 L273,200 L296.225076,200 C314.062438,200 322.987411,209.63173 323,228.895191 L323,282.694102 Z M382.089324,156.103687 C359.469577,138.70215 330.69174,130.001382 295.755812,130.001382 L143.632634,130.001382 C134.043005,129.884503 125.982538,137.19529 125.139376,146.774635 C124.813731,151.73569 126.552083,156.610376 129.941059,160.239506 C133.330035,163.868636 138.066832,165.92795 143.025052,165.927749 L181.359638,165.927749 C190.952767,165.801583 199.018598,173.117235 199.852895,182.701002 C200.18954,187.66336 198.458116,192.54339 195.071467,196.177492 C191.684818,199.811592 186.946457,201.874074 181.986206,201.873155 L115.531996,201.873155 C105.942368,201.756276 97.8819011,209.067062 97.0387393,218.646408 C96.7130935,223.607463 98.4514463,228.482149 101.840422,232.111279 C105.229398,235.740409 109.966195,237.799723 114.924415,237.799521 L145.303482,237.799521 C154.908231,237.679525 162.992104,244.981552 163.872687,254.572775 C164.219844,259.550043 162.492387,264.448702 159.102177,268.100806 C155.711968,271.752909 150.962812,273.831183 145.987011,273.840122 L143.59466,273.840122 C134.005031,273.723243 125.944564,281.03403 125.101403,290.613375 C124.775757,295.57443 126.51411,300.449116 129.903086,304.078246 C133.292062,307.707376 138.028858,309.76669 142.987078,309.766489 L159.163932,309.766489 C161.785478,309.766489 163.910661,311.897488 163.910661,314.526209 L163.910661,372.271132 C163.992118,377.610038 168.288641,381.918319 173.612975,382 L296.059603,382 C331.98285,382 360.950557,373.603854 382.962722,356.811562 C404.974887,340.019269 415.987299,315.268725 415.999958,282.559929 L415.999958,229.003559 C416.025273,197.817873 404.721729,173.517916 382.089324,156.103687 Z" id="Shape" fill="#231F20" fill-rule="nonzero"></path>
        </g>
    </g>
</svg>