<?xml version="1.0" encoding="UTF-8"?>
<svg width="1024px" height="1024px" viewBox="0 0 1024 1024" version="1.1" xmlns="http://www.w3.org/2000/svg" xmlns:xlink="http://www.w3.org/1999/xlink">
    <!-- Generator: Sketch 47.1 (45422) - http://www.bohemiancoding.com/sketch -->
    <title>Icon</title>
    <desc>Created with Sketch.</desc>
    <defs>
        <rect id="path-1" x="0" y="0" width="1023.46011" height="1023.46011" rx="44"></rect>
    </defs>
    <g id="Page-1" stroke="none" stroke-width="1" fill="none" fill-rule="evenodd">
        <g id="Icon">
            <g id="AT">
                <mask id="mask-2" fill="white">
                    <use xlink:href="#path-1"></use>
                </mask>
                <use id="Rectangle" fill="#A43551" xlink:href="#path-1"></use>
                <path d="M250,780.039462 L275.93323,780.039462 L362.143699,289.410777 L336.210469,289.410777 L250,780.039462 Z M662.828994,369.313163 L688.762225,362.304182 C681.052346,313.241314 636.194866,281 573.114035,281 C484.800872,281 428.028124,335.670053 428.028124,403.657171 C428.028124,536.126916 634.092172,511.595482 634.092172,641.962532 C634.092172,719.762224 574.515831,763.918805 503.725121,763.918805 C444.148781,763.918805 404.197588,728.873899 390.179626,677.007438 L364.246395,685.418216 C377.563459,740.789167 425.224532,788.450239 500.921529,788.450239 C591.337386,788.450239 661.427198,731.677492 661.427198,637.056245 C661.427198,491.269436 455.363151,514.399074 455.363151,402.956273 C455.363151,344.080831 500.22063,305.531434 572.413137,305.531434 C623.5787,305.531434 653.717319,328.661072 662.828994,369.313163 Z M889.219089,788.450239 C779.178084,788.450239 736.423299,689.623604 736.423299,590.796969 C736.423299,456.925428 807.214009,281 972.625965,281 C1084.06877,281 1122.61816,374.21945 1122.61816,475.148779 C1122.61816,611.123015 1054.63105,788.450239 889.219089,788.450239 Z M892.723579,763.217907 C1038.51039,763.217907 1095.98403,597.105052 1095.98403,474.447881 C1095.98403,386.134718 1063.04182,306.232332 969.121475,306.232332 C823.334665,306.232332 763.758325,470.943391 763.758325,593.600562 C763.758325,684.016419 797.401435,763.217907 892.723579,763.217907 Z" id="ISO" fill="#FFFFFF" mask="url(#mask-2)"></path>
            </g>
        </g>
    </g>
</svg>