<?xml version="1.0" encoding="UTF-8"?>
<svg width="1024px" height="1024px" viewBox="0 0 1024 1024" version="1.1" xmlns="http://www.w3.org/2000/svg" xmlns:xlink="http://www.w3.org/1999/xlink">
    <!-- Generator: Sketch 47.1 (45422) - http://www.bohemiancoding.com/sketch -->
    <title>Icon</title>
    <desc>Created with Sketch.</desc>
    <defs>
        <circle id="path-1" cx="505.23348" cy="505.23348" r="505.23348"></circle>
    </defs>
    <g id="Page-1" stroke="none" stroke-width="1" fill="none" fill-rule="evenodd">
        <g id="Icon">
            <g id="AT" transform="translate(7.000000, 7.000000)">
                <mask id="mask-2" fill="white">
                    <use xlink:href="#path-1"></use>
                </mask>
                <use id="Mask" fill="#030409" xlink:href="#path-1"></use>
                <path d="M247,746.704 L272.604,746.704 L357.72,262.304 L332.116,262.304 L247,746.704 Z M654.588001,341.192 L680.192001,334.272 C672.580001,285.832 628.292001,254 566.012001,254 C478.820001,254 422.768001,307.976 422.768001,375.1 C422.768001,505.888 626.216001,481.668 626.216001,610.38 C626.216001,687.192 567.396001,730.788 497.504001,730.788 C438.684001,730.788 399.240001,696.188 385.400001,644.98 L359.796001,653.284 C372.944001,707.952 420.000001,755.008 494.736001,755.008 C584.004001,755.008 653.204001,698.956 653.204001,605.536 C653.204001,461.6 449.756001,484.436 449.756001,374.408 C449.756001,316.28 494.044001,278.22 565.320001,278.22 C615.836001,278.22 645.592001,301.056 654.588001,341.192 Z M878.104003,755.008 C769.460003,755.008 727.248003,657.436 727.248003,559.864 C727.248003,427.692 797.140003,254 960.452003,254 C1070.48,254 1108.54,346.036 1108.54,445.684 C1108.54,579.932 1041.416,755.008 878.104003,755.008 Z M881.564003,730.096 C1025.5,730.096 1082.244,566.092 1082.244,444.992 C1082.244,357.8 1049.72,278.912 956.992003,278.912 C813.056003,278.912 754.236003,441.532 754.236003,562.632 C754.236003,651.9 787.452003,730.096 881.564003,730.096 Z" id="ISO" fill="#FFFFFF" mask="url(#mask-2)"></path>
            </g>
        </g>
    </g>
</svg>