<svg version="1" xmlns="http://www.w3.org/2000/svg" width="1365.333" height="1365.333" viewBox="0 0 1024.000000 1024.000000"><path d="M489 7.7C305.7 15.8 140.5 124.2 59 289.5 6.1 396.9-6.8 519.1 22.6 636.1 36 689.7 59.3 742.7 89.5 788.5 134.8 857.2 194 912.6 265 952.7c64.4 36.4 133.9 57.2 211.4 63.4 19.2 1.5 70 .6 89.5-1.6 138.9-15.6 261.7-84.6 347.1-195 5.1-6.6 14.3-19.7 20.5-29 11.1-16.6 25.1-40.2 24.4-40.9-.2-.2-4.4 1-9.4 2.6-36.6 12.3-81.3 12.9-113.2 1.7-51.8-18.3-85.5-66.1-97.3-137.9-10.1-61.5.5-141.4 27.1-204.4 31.4-74.4 82.4-124.7 144.4-142.6 10.6-3.1 31.3-7 37.1-7 1.9 0 3.4-.4 3.4-1 0-1.1-8.6-15.5-16-26.6-41.5-62.7-97.3-116.3-161.8-155.2-17.4-10.6-55.5-29.4-73.7-36.6C631 16.3 560.5 4.5 489 7.7zm106.2 254.8c37.3 4.9 66.4 22.5 82.2 49.6 3.4 5.9 8.2 19.1 9.1 24.9l.6 4.5-12.6 3.3c-7 1.8-12.8 3.2-12.9 3-.1-.2-1.2-3.7-2.5-7.8-6.3-20.5-18.9-35.5-37.6-44.5-34.5-16.9-91.5-12.3-124.9 9.9-23.9 15.9-37.7 40.4-39.3 69.8-2 36 13.9 60.2 55.7 84.8 6.3 3.7 24.1 13.3 39.5 21.2 38.1 19.7 51.2 27.8 67.1 41.6 19.9 17.2 32.8 38.6 38.1 63.2 2.8 13.1 2.5 45.7-.6 60-9.6 44.8-34.7 77.7-74.7 98.1-12.1 6.1-30.4 12.1-46 15.1-15.9 3-49 3.2-62.9.5-38.1-7.5-67.7-26.5-87.6-56-7.1-10.6-12.7-22.2-16.3-33.5-1.4-4.6-2.6-8.7-2.6-9.2 0-.8 24.9-9.5 25.4-8.9.1.2 1.3 3.5 2.5 7.4 7.2 22.6 21 42.4 38.4 55.6 22.2 16.8 52.2 24.7 83.5 22 47.6-4.2 84-26.2 102.7-62.3 9.6-18.4 13-33.6 13-57.3-.1-14.2-.4-18.3-2.2-25.2-7.5-28.3-26.2-49.9-61.3-71.1-6.3-3.8-21.6-12.2-34-18.7-46.3-24.2-63.6-35.6-78.4-51.6-18.1-19.5-25.3-37.5-26.3-64.9-.4-13.3-.2-17 1.7-26 8.1-39.3 33.2-69 73-86.1 25.3-10.9 60.3-15.4 90.2-11.4zm-230.7 8.7c-.3 1.3-6.1 34.2-13 73.3-6.8 39-19.2 109.5-27.4 156.5-8.3 47-21.6 122.8-29.6 168.3-8 45.6-14.5 83.2-14.5 83.8 0 .5-5.5.9-13 .9-7.1 0-13-.3-13-.6s9.7-55.7 21.5-123.2C313.5 414 316.7 395.5 327 337c5.5-31.6 10.5-59.9 11.1-62.8l1-5.2h13c12.9 0 12.9 0 12.4 2.2z"/><path d="M947.5 286.7c-18.8 1.7-41.1 8.1-57.9 16.5-17.5 8.7-28.4 16.6-43.9 31.7-43.9 42.6-73.4 112.5-82.3 195.1-2.2 20.5-2.3 57.6 0 75.8 7.1 58.3 29 97.5 65.6 117.5 29.2 16 73.7 18 113.5 5.1 9.1-3 29.2-12.6 32.3-15.4 4.7-4.4 20.2-48.9 27.7-79.4 10.1-41.2 14.5-77.9 14.5-121.1 0-76.2-15.8-147.5-47.9-215.8l-5-10.7-6.3.2c-3.5.1-8.1.3-10.3.5z"/></svg>