<?xml version="1.0" standalone="no"?>
<!DOCTYPE svg PUBLIC "-//W3C//DTD SVG 20010904//EN"
 "http://www.w3.org/TR/2001/REC-SVG-20010904/DTD/svg10.dtd">
<svg version="1.0" xmlns="http://www.w3.org/2000/svg"
 width="16.000000pt" height="16.000000pt" viewBox="0 0 16.000000 16.000000"
 preserveAspectRatio="xMidYMid meet">
<metadata>
Created by potrace 1.11, written by Peter Selinger 2001-2013
</metadata>
<g transform="translate(0.000000,16.000000) scale(0.003125,-0.003125)"
fill="#000000" stroke="none">
<path d="M2345 4790 c-281 -30 -518 -98 -770 -220 -574 -279 -1020 -821 -1180
-1436 -54 -207 -69 -331 -69 -574 0 -243 15 -367 69 -574 159 -612 600 -1151
1170 -1431 221 -108 396 -165 645 -207 180 -31 520 -31 700 0 503 86 922 306
1265 664 140 146 324 397 342 466 3 14 -42 172 -122 430 -71 224 -134 428
-142 455 l-15 47 -264 0 -264 0 -5 -22 c-2 -13 -41 -230 -85 -483 -44 -253
-83 -470 -85 -482 -5 -21 -11 -23 -61 -23 -56 0 -56 0 -51 28 3 15 87 498 188
1075 l184 1047 388 0 389 0 -43 78 c-221 403 -569 738 -974 937 -221 108 -400
166 -640 206 -136 23 -441 33 -570 19z m443 -1226 c160 -41 294 -151 370 -305
166 -336 132 -914 -77 -1330 -64 -126 -127 -215 -221 -310 -219 -221 -560
-310 -837 -218 -305 101 -481 478 -443 952 32 392 165 725 379 950 146 153
306 240 501 272 97 16 240 11 328 -11z"/>
<path d="M2525 3474 c-194 -26 -334 -92 -461 -219 -249 -248 -399 -720 -364
-1150 18 -216 74 -365 180 -478 97 -105 216 -151 386 -150 192 1 347 62 489
195 95 89 150 162 214 286 197 385 237 927 90 1231 -68 141 -187 239 -324 269
-60 13 -168 21 -210 16z"/>
<path d="M3890 3440 c0 -5 -36 -213 -80 -462 -44 -249 -80 -457 -80 -462 0 -5
141 -6 333 -3 298 4 340 7 412 26 106 28 209 79 268 130 56 51 57 62 27 246
-25 153 -60 291 -109 419 -38 101 -38 101 -77 108 -61 11 -694 10 -694 -2z"/>
<path d="M4748 2540 c-91 -57 -280 -120 -362 -120 -18 0 -26 -4 -23 -12 2 -7
55 -175 116 -373 61 -198 114 -367 117 -375 7 -20 21 7 68 131 72 195 119 428
132 653 4 69 5 126 3 126 -2 0 -25 -14 -51 -30z"/>
</g>
</svg>
