<svg version="1" xmlns="http://www.w3.org/2000/svg" width="682.667" height="682.667" viewBox="0 0 512.000000 512.000000"><path d="M232.5 33.2c-30.4 3-63.3 14-90.8 30.1-30.3 17.9-60.5 48.1-78.4 78.4C17.2 220.1 22.4 317 76.6 390.1c9.9 13.3 32 35.4 45.3 45.3 39.1 29 86 44.6 134.1 44.6 48.1 0 95-15.6 134.1-44.6 13.4-9.9 35.4-32 45.3-45.3 9-12.1 16.6-24.7 16.6-27.4 0-1.5-17.1-57.4-26.6-87l-1.6-4.7H371l-.5 2.2c-.3 1.3-4.1 22.8-8.5 47.8-4.4 25-8.3 46.7-8.6 48.3-.5 2.5-.9 2.7-6.1 2.7-5.5 0-5.5 0-5-2.8.3-1.5 8.8-49.8 18.9-107.4L379.5 157l38.8-.2 38.7-.3-6.5-11.5c-18.3-32.2-48.6-63.1-80.2-81.7-41.5-24.4-89.8-35-137.8-30.1zm36.2 120.9c27.2 3 43.8 17.7 52.9 46.9 6.3 20.1 5.8 56.8-1 83.9-13.4 53-45.5 86.2-86.9 90-30.3 2.8-52.6-8.9-65.2-34.3-17-34.4-13.6-90.1 8.1-131.4 14.2-27 33.2-44.1 57.4-51.7 4.7-1.4 11.9-3 16-3.4 4.1-.5 7.9-.9 8.3-1 .4 0 5.1.4 10.4 1z"/><path d="M245.8 165.5c-41.4 7.8-70.4 49.9-75.9 110.4-1.3 14.4 0 33.3 3 45.2 8.2 32.1 32.4 48 64.7 42.5 21.2-3.6 38.3-15 52.1-34.7 16.5-23.8 26.6-63.1 24.9-97.5-1.6-34.5-14.4-56.7-37.2-64.3-8.2-2.7-21.9-3.4-31.6-1.6zM389 167.7c0 .5-3.6 21.1-8 45.8-4.4 24.8-8 45.6-8 46.4 0 1.1 5.7 1.2 33.3.8 29.5-.4 34.1-.7 41.4-2.6 10.4-2.6 21.1-7.9 27-13.4l4.6-4.2-.7-8.5c-.4-4.7-1.8-14-3.1-20.7-2.6-12.8-10.6-38.7-13-41.9-1.3-1.8-3.6-1.9-37.4-2.2-19.9-.2-36.1.1-36.1.5zM476.5 256.6c-7 5.4-23.4 11.5-35 12.9-4.5.6-5.5 1-5.1 2.4.9 2.7 16.4 52.8 20.3 65l3.5 11.5 2.9-6.8c9.6-22.4 16.9-57.5 16.9-80.8 0-6.2-.4-6.6-3.5-4.2z"/></svg>