<svg version="1" xmlns="http://www.w3.org/2000/svg" width="896" height="896" viewBox="0 0 672.000000 672.000000"><path d="M88.3 72c-1.3.5-2.3.6-2.3.2 0-.4-.4-.2-.8.3-.4.6-2.7 1.9-5.2 3-5.7 2.5-14.4 11.2-17.1 17.2-9.9 21.7 1.3 45.9 24.1 52.4 3.3.9 16.9 1.3 51 1.4 48.7.1 49.4.2 58.4 4.7 14.5 7.3 22.9 25.5 19.2 41.7-.9 3.9-4 11.1-4.8 11.1-.5 0-.8.6-.8 1.4 0 2.2-9.5 10.2-15.3 13-2.9 1.3-7.3 2.7-9.7 3-2.5.3-37.9.6-78.7.6-49.3 0-75.3.4-77.5 1.1-6.7 2.1-12.4 5.5-16.8 9.9-6.6 6.6-7.6 8.1-10 15.4-4.4 12.9-.8 28 9 38.1 3.5 3.6 14.3 9.5 18.7 10.2 1.5.3 19.7.6 40.3.7 20.6.1 39.1.6 41 1 6.4 1.5 15 6.8 20 12.4 10.9 12.2 12.7 29.8 4.6 43.6-7.3 12.3-19 18.7-34.5 18.8-7.7 0-18.8 2.4-21.3 4.6-1 .8-1.8 1.2-1.8.8 0-1-2.5 1.1-8.6 7.3-6.8 7-9.9 14.7-9.8 24.6 0 9.2.4 11 3.8 17.8 3 5.9 8.5 11.7 14.6 15.4 6.5 4 11.5 4.7 33.8 4.8 15.9.1 21.9.5 23.8 1.6 5.5 2.9 5.4 1.5 5.3 70.2 0 69.3-.2 67.3 5.8 73.5 1.5 1.6 4.4 3.7 6.3 4.8 3.3 1.7 9.6 1.8 144 1.7 124.2-.1 151.6-.4 163.5-1.7 1.7-.2 5.7-.7 9-1 6.7-.8 10.6-1.3 15-2.3 1.7-.3 4.1-.7 5.5-.9 2.2-.2 7-1.1 14.5-2.8 26.8-5.8 56.2-17.5 78.5-31.1 22.9-13.9 36-25.6 54.5-48.6 2.5-3.2 11.9-19.1 14.1-23.9.9-1.9 2-4.2 2.5-5 .5-.8 1.1-2 1.3-2.5.9-2.2 1.9-5.1 2.2-6 .1-.6 1.2-3.7 2.5-7 2.3-6.5 5.9-18.8 6.3-22 .1-1.1.8-4.5 1.4-7.5 1.3-6.3 2-10.5 3-20.5.9-9.3.9-158.6-.1-165-.4-2.8-.9-6.1-1.1-7.5-.3-1.4-.7-4.1-1-6-3.7-23.3-13-47.9-25.4-67-3-4.7-5.8-8.7-6.2-9-.4-.3-1.1-1.2-1.6-2.2-2.2-3.9-17.3-20.1-25-26.8-19.5-16.8-41.9-30.5-65.9-40.3L534 89.5c-.3-.1-4.8-1.5-10.1-3.2-10-3.3-21.1-6.2-34.1-8.8-9.7-1.9-17.7-3.1-36.3-5.2-9.3-1.1-362.6-1.3-365.2-.3zm344.2 147.4c1.1.2 2 .5 2 .6 0 .1.9.3 2 .4 7.7.9 20.2 7.8 25.3 13.8 7.2 8.5 11.5 18.9 12.9 31.4.5 3.8.8 36.8.7 73.4-.1 59.5-.3 67.1-1.9 72.5-.9 3.3-1.8 6.4-1.9 7-.1.5-.9 2.5-1.9 4.4-.9 1.9-1.7 3.8-1.7 4.2 0 1.9-11 13.6-15.2 16.2-7.7 4.8-13.3 7.2-19.8 8.5-4.8 1-62.3 1.3-62.9.3-.5-.7-.6-230.7-.2-233.1.1-.7 59.8-.3 62.6.4z"/></svg>