<svg version="1" xmlns="http://www.w3.org/2000/svg" width="896" height="896" viewBox="0 0 672.000000 672.000000"><path d="M87.5 72.4C66.9 79 55.4 98.3 60.4 117.8c2.6 10.3 10 19.7 19.2 24.5 7.3 3.8 10.9 4 58.9 4.2 46.4.2 47.1.2 52.9 2.5 3.3 1.3 6.5 2.7 7 3.1 12.2 9.5 17.6 18.7 18.1 30.9.2 7-3.6 21-5.7 21-.4 0-.8.6-.8 1.4 0 2.2-9.5 10.2-15.2 12.9-2.9 1.4-7.1 2.7-9.3 3.1-2.2.3-37.6.5-78.7.6-49.6 0-75.8.4-78 1.1-6.7 2.1-12.4 5.5-16.8 9.9-5.4 5.4-8 8.7-8 10.1 0 .5-.7 2.4-1.6 4C.3 251.2-.5 262 .9 267.8c1.6 6.4 4.8 12.6 9.2 17.6 3.8 4.3 14.6 10.5 19.6 11.3 1.5.3 19.7.6 40.3.7 20.6.1 39.1.6 41 1 5.2 1.2 12.6 5.2 17 9.2 14.2 12.8 16.7 33.6 6 49.3-3.1 4.5-11.6 11.8-13.2 11.3-.4-.1-.8.2-.8.7 0 1.5-11.6 4.1-20.7 4.6-11.4.6-11.8.7-18.3 3.7-27.4 12.6-29.1 50.6-3 66.5 6.5 3.9 11.6 4.6 33.8 4.8 15.8.2 21.9.6 23.8 1.6 5.4 2.9 5.4 1.7 5.4 69.1 0 34.2.2 63.6.5 65.3 1.4 7.2 7.9 13.6 15.3 15.2 3.5.8 279.2.7 290.2-.1 74.5-5.1 133.1-28.1 173.1-67.7C630 522 644 504 644 501.1c0-.5.3-1.1.8-1.3 2.1-.9 14.5-27.4 15.6-33.4.3-1.2.9-3.1 1.4-4.1.8-1.6 3.6-12.4 4.7-18.1.2-1.3.6-3.1.9-4 .8-2.6 2-11 3.3-22.7 1-8.8 1.1-153.5.1-163-.4-3.9-1-8.1-1.2-9.5-.3-1.4-.7-4.1-1-6-.9-5.8-1.5-8.2-3.6-16-1.1-4.1-2.2-8.5-2.5-9.8-2.5-10.6-19-43.6-24.9-49.4-.7-.7-1.7-2-2.2-3-2.4-4.4-19.8-22.6-28.4-29.8-12.3-10.3-35.3-24.9-49.8-31.6-19.5-9-47.2-18.4-58.9-19.9-1.1-.2-2.9-.6-4-.9-1-.3-3.4-.8-5.3-1.1-1.9-.3-5.3-1-7.5-1.4-2.2-.5-4.7-.9-5.5-1-.8 0-2.8-.3-4.5-.6-1.6-.3-5.2-.7-8-1-2.7-.3-7.2-.8-10-1.2-2.7-.4-85.3-.8-183.5-.9-143.4-.2-179.3-.1-182.5 1zm346.8 147.5c1.5.6 2.7.9 2.7.6 0-.6 10.2 3 14.1 5 4.3 2.3 13.2 10.7 14.9 14.3.8 1.5 1.9 3.4 2.6 4.2 2 2.7 5.4 15.3 6.2 23.1.4 4.1.7 36.8.7 72.5-.2 58.8-.3 65.6-2 71.9-1.7 6.7-5.7 16.5-7.9 19.3-8.9 11.1-18.3 17.3-31.7 20.9-4.1 1.1-63.1 1.5-63.8.5-.5-.8-.7-230.7-.2-233.2.2-1.1 61.5-.3 64.4.9z"/></svg>