<svg version="1" xmlns="http://www.w3.org/2000/svg" width="1365.333" height="1365.333" viewBox="0 0 1024.000000 1024.000000"><path d="M485 .6c-92.3 6.2-172.4 31.7-246 78.2C111.5 159.6 25.5 292.3 5.1 440 1.2 468.4.5 479 .6 512.5c.1 44.2 3.6 76.3 12.9 115.9C57 814.3 202 961.7 387 1008c42.8 10.7 78.8 15 125.4 15 76.1 0 145.4-15.2 214.6-47 85.7-39.3 164.4-108 215.4-187.9 4.3-6.7 4.6-7.3 2.4-6.8-24.9 5.8-27.5 6.1-53.3 6.1-22.7.1-26-.1-35.4-2.2-43.5-9.8-74.3-35.1-95.6-78.7-24.1-49.3-30.2-115.4-17.4-188.5 6.8-39.1 22.4-84.5 39.5-115.5 41.6-74.9 100.5-115.5 176.2-121.1 5-.3 9.2-.9 9.2-1.2 0-2.9-23.4-42.2-34.8-58.6C845.3 96 713.4 18.1 562 2.5 547.5 1 497.6-.2 485 .6zm121 283.7c33.3 7.1 57.4 23 71.9 47.4 3.9 6.7 9.6 22 10.3 27.7l.3 2.9-12 3.4c-6.6 1.8-12.4 3.2-12.8 3-.4-.1-2.1-4.3-3.8-9.2-7.3-21.8-22.2-37.8-42.9-46.1-13-5.3-20.4-6.6-40.1-7.1-20.3-.6-30.3.3-45.3 4.1-24 6.1-42.3 16.9-55.7 32.9-19.2 22.9-25.8 58.7-15.9 85.9 3.8 10.4 9.7 19.5 18.5 28.4 13.3 13.5 28.4 23.1 67 42.9 28.2 14.5 47.9 25.6 57.5 32.3 30.7 21.7 46.6 42.8 54.8 73.1 2.4 9 2.6 11 2.6 32.1 0 19.7-.2 23.8-2.2 33-4.7 21.4-13.3 41.5-24.4 56.5-19.3 26.2-50 46.2-84.5 55-17.7 4.5-30.6 5.8-52.8 5.2-21.6-.6-32.3-2.4-48.5-8.2-38-13.8-67.5-44.1-80.4-82.7-4-11.7-4.3-11.2 8.2-15.2 15.4-4.9 13.9-5.2 16.8 3.4 18.3 54.9 67.1 84.5 128.2 78 70.6-7.7 116.1-58.6 112.9-126.4-1.8-37.9-20.3-64.8-62.5-90.9-5.1-3.2-18.4-10.5-29.5-16.4-46-24.2-62.5-34.2-77.2-47.1-32-27.8-43.4-65.9-32.5-108.2 12.7-49.6 58.9-85.1 119.5-92 14.2-1.6 41.4-.4 54.5 2.3zm-244 5.1c0 .6-84.9 484.6-85.6 487.9l-.6 2.7h-26l.6-2.7c.3-1.6 19.5-110.6 42.6-242.3 23.1-131.7 42.3-241 42.6-242.8l.6-3.2h12.9c7.1 0 12.9.2 12.9.4z"/><path d="M951.5 307.1c-21 2-38.1 7.1-58 16.9-16.3 8.1-28.2 16.4-41.7 29-53.4 49.8-87.8 144.1-87.8 240.3 0 79 24.2 133.2 70 156.6 19.7 10.1 38.1 13.7 65.5 12.8 22.8-.8 42.3-5 61.7-13.5 5.7-2.5 6-3 14.4-21.2 25.8-56.2 40.5-111.3 45.9-172.7 1.7-19.4 2-62.9.5-81.9-4.1-52.4-15.4-101.8-34.1-148.9-3.2-8.3-6.3-15.7-6.9-16.5-1.1-1.8-15.7-2.3-29.5-.9z"/></svg>